<svg id="Capa_1" enable-background="new 0 0 512 512" height="512" viewBox="0 0 512 512" width="512" xmlns="http://www.w3.org/2000/svg" xmlns:xlink="http://www.w3.org/1999/xlink"><linearGradient id="lg1"><stop offset="0" stop-color="#ff195e"/><stop offset="1" stop-color="#ffc5a3"/></linearGradient><linearGradient id="SVGID_1_" gradientUnits="userSpaceOnUse" x1="38.473" x2="457.091" xlink:href="#lg1" y1="473.526" y2="54.907"/><radialGradient id="SVGID_2_" cx="256" cy="256" gradientUnits="userSpaceOnUse" r="256"><stop offset="0" stop-color="#ff195e"/><stop offset="1" stop-color="#fff" stop-opacity="0"/></radialGradient><linearGradient id="SVGID_3_" gradientTransform="matrix(0 1 -1 0 512 0)" gradientUnits="userSpaceOnUse" x1="421.946" x2="-93.052" xlink:href="#lg1" y1="421.946" y2="-93.052"/><linearGradient id="SVGID_4_" gradientUnits="userSpaceOnUse" x1="-216.854" x2="654.843" xlink:href="#lg1" y1="728.854" y2="-142.843"/><linearGradient id="SVGID_5_" gradientUnits="userSpaceOnUse" x1="-190.169" x2="730.499" xlink:href="#lg1" y1="551.228" y2="-369.44"/><linearGradient id="SVGID_6_" gradientTransform="matrix(0 1 -1 0 512 0)" gradientUnits="userSpaceOnUse" x1="965.313" x2="60.798" y1="814.373" y2="-90.143"><stop offset=".1" stop-color="#ff195e"/><stop offset="1" stop-color="#ffc5a3"/></linearGradient><linearGradient id="lg2"><stop offset="0" stop-color="#ffb5d3"/><stop offset=".4183" stop-color="#ffdbea"/><stop offset=".7836" stop-color="#fff5f9"/><stop offset="1" stop-color="#fff"/></linearGradient><linearGradient id="SVGID_7_" gradientTransform="matrix(0 1 -1 0 512 0)" gradientUnits="userSpaceOnUse" x1="300.555" x2="20.522" xlink:href="#lg2" y1="395.342" y2="115.309"/><linearGradient id="SVGID_8_" gradientTransform="matrix(0 1 -1 0 512 0)" gradientUnits="userSpaceOnUse" x1="482.017" x2="39.632" xlink:href="#lg2" y1="455.745" y2="13.36"/><linearGradient id="SVGID_9_" gradientTransform="matrix(0 1 -1 0 512 0)" gradientUnits="userSpaceOnUse" x1="370.035" x2="143.802" xlink:href="#lg2" y1="457.64" y2="231.408"/><linearGradient id="SVGID_10_" gradientTransform="matrix(0 1 -1 0 512 0)" gradientUnits="userSpaceOnUse" x1="562.17" x2="173.1" xlink:href="#lg2" y1="543.285" y2="154.215"/><linearGradient id="SVGID_11_" gradientUnits="userSpaceOnUse" x1="121.854" x2="431.157" xlink:href="#lg2" y1="288.786" y2="-20.517"/><linearGradient id="SVGID_12_" gradientTransform="matrix(0 1 -1 0 512 0)" gradientUnits="userSpaceOnUse" x1="448.82" x2="-42.609" xlink:href="#lg2" y1="464.059" y2="-27.37"/><linearGradient id="SVGID_13_" gradientUnits="userSpaceOnUse" x1="121.914" x2="432.079" xlink:href="#lg2" y1="258.344" y2="-51.82"/><linearGradient id="SVGID_14_" gradientTransform="matrix(0 1 -1 0 512 0)" gradientUnits="userSpaceOnUse" x1="417.637" x2="-72.36" xlink:href="#lg2" y1="463.452" y2="-26.545"/><linearGradient id="SVGID_15_" gradientUnits="userSpaceOnUse" x1="158.818" x2="365.686" xlink:href="#lg1" y1="383.888" y2="177.02"/><linearGradient id="SVGID_16_" gradientUnits="userSpaceOnUse" x1="187.656" x2="291.124" xlink:href="#lg1" y1="355.083" y2="251.615"/><g><circle cx="256" cy="256" fill="url(#SVGID_1_)" r="256"/><circle cx="256" cy="256" fill="url(#SVGID_2_)" r="256"/><path d="m82.64 383.5c-4.603-85-4.603-170 0-255 .455-8.277 7.585-15.273 15.86-15.593 105-3.96 210-3.96 315 0 8.275.318 15.405 7.315 15.86 15.593 4.603 85 4.603 170 0 255-.456 8.277-7.584 15.272-15.86 15.593-105 3.96-210 3.96-315 0-8.275-.32-15.406-7.317-15.86-15.593z" fill="url(#SVGID_3_)"/><path d="m351.173 263.184c19.591-43.125 38.608-85.88 55.917-127.916-100.727-3.025-201.454-3.025-302.181 0 17.309 42.035 36.327 84.79 55.918 127.916-19.462 38.295-38.4 76.247-55.918 113.547 100.727 3.025 201.454 3.025 302.181 0-17.517-37.3-36.455-75.252-55.917-113.547z" fill="url(#SVGID_4_)"/><path d="m161.283 191.343c-.615 43.105-.615 86.21 0 129.314-19.156 18.969-38.022 37.712-56.374 56.074-3.546-80.488-3.546-160.975 0-241.463 18.352 18.363 37.218 37.106 56.374 56.075z" fill="url(#SVGID_5_)"/><path d="m350.717 191.343c.615 43.105.615 86.21 0 129.314 19.156 18.969 38.021 37.712 56.373 56.074 3.546-80.488 3.546-160.975 0-241.463-18.351 18.363-37.217 37.106-56.373 56.075z" fill="url(#SVGID_6_)"/><path d="m134.197 347.161c-1.595-60.774-1.595-121.548 0-182.322 17.763-.318 35.526-.566 53.289-.745 19.852 30.431 40.327 61.157 60.827 91.906-20.5 30.749-40.975 61.475-60.827 91.906-17.763-.179-35.526-.427-53.289-.745z" fill="url(#SVGID_7_)"/><path d="m187.485 347.906c-.898-61.271-.898-122.541 0-183.812 63.439-.638 126.879-.39 190.318.745 1.595 60.774 1.595 121.548 0 182.322-63.439 1.135-126.878 1.383-190.318.745z" fill="url(#SVGID_8_)"/><path d="m149.102 332.18c-.969-50.787-.969-101.573 0-152.36 12.726-.165 25.452-.301 38.178-.408 20.05 25.359 40.533 50.964 61.032 76.588-20.5 25.624-40.983 51.229-61.032 76.588-12.726-.107-25.452-.242-38.178-.408z" fill="url(#SVGID_9_)"/><path d="m187.28 332.588c-.623-51.059-.623-102.117 0-153.176 58.539-.489 117.079-.353 175.618.408.969 50.787.969 101.573 0 152.36-58.54.762-117.079.897-175.618.408z" fill="url(#SVGID_10_)"/><path d="m171.529 225.422c-4.239.018-7.703 3.453-7.723 7.669-.022 4.217 3.41 7.626 7.654 7.62 5.124-.011 10.247-.02 15.371-.028.012-5.106.031-10.212.056-15.318-5.119.017-10.239.036-15.358.057z" fill="url(#SVGID_11_)"/><path d="m340.471 225.422c-51.195-.208-102.389-.227-153.584-.057-4.242.014-7.698 3.455-7.715 7.679-.017 4.225 3.415 7.642 7.659 7.639 51.236-.085 102.472-.076 153.708.028 4.245.006 7.677-3.403 7.654-7.62-.02-4.217-3.479-7.651-7.722-7.669z" fill="url(#SVGID_12_)"/><path d="m171.803 194.843c-4.227.034-7.698 3.486-7.748 7.702-.047 4.217 3.352 7.612 7.588 7.587 5.112-.031 10.225-.06 15.337-.085.038-5.106.081-10.212.131-15.318-5.102.035-10.205.073-15.308.114z" fill="url(#SVGID_13_)"/><path d="m340.197 194.843c-51.028-.416-102.057-.453-153.085-.114-4.227.03-7.692 3.481-7.732 7.706-.041 4.227 3.366 7.632 7.601 7.612 51.125-.255 102.251-.227 153.376.085 4.234.024 7.638-3.37 7.588-7.587-.05-4.215-3.521-7.667-7.748-7.702z" fill="url(#SVGID_14_)"/><path d="m286.717 286.727c-.047 16.965-13.823 30.77-30.717 30.773-16.894-.003-30.67-13.807-30.717-30.773-.04-16.966 13.735-30.724 30.717-30.727 16.982.003 30.759 13.763 30.717 30.727z" fill="url(#SVGID_15_)"/><path d="m271.358 286.744c-.01 8.488-6.89 15.38-15.358 15.381s-15.348-6.892-15.358-15.381c-.011-8.49 6.87-15.369 15.358-15.369 8.491-.001 15.368 6.881 15.358 15.369z" fill="url(#SVGID_16_)"/></g></svg>