<svg id="Capa_1" enable-background="new 0 0 512 512" height="512" viewBox="0 0 512 512" width="512" xmlns="http://www.w3.org/2000/svg" xmlns:xlink="http://www.w3.org/1999/xlink"><linearGradient id="SVGID_1_" gradientUnits="userSpaceOnUse" x1="74.981" x2="437.02" y1="437.019" y2="74.98"><stop offset="0" stop-color="#230be0"/><stop offset="1" stop-color="#dda2fc"/></linearGradient><radialGradient id="SVGID_2_" cx="204.282" cy="306.704" gradientUnits="userSpaceOnUse" r="361.426"><stop offset="0" stop-color="#230be0" stop-opacity=".5"/><stop offset=".1213" stop-color="#4e2ee6" stop-opacity=".439"/><stop offset=".2656" stop-color="#7951ed" stop-opacity=".367"/><stop offset=".412" stop-color="#9d6ef2" stop-opacity=".294"/><stop offset=".5584" stop-color="#b985f7" stop-opacity=".221"/><stop offset=".705" stop-color="#cd95fa" stop-opacity=".148"/><stop offset=".852" stop-color="#d99ffb" stop-opacity=".074"/><stop offset="1" stop-color="#dda2fc" stop-opacity="0"/></radialGradient><linearGradient id="SVGID_3_" gradientTransform="matrix(.707 .707 -.707 .707 -218.331 -404.425)" gradientUnits="userSpaceOnUse" x1="802.394" x2="802.394" y1="58.468" y2="-118.571"><stop offset="0" stop-color="#dda2fc" stop-opacity="0"/><stop offset=".172" stop-color="#da9ffb" stop-opacity=".172"/><stop offset=".3199" stop-color="#cf97fa" stop-opacity=".32"/><stop offset=".4591" stop-color="#bd88f7" stop-opacity=".459"/><stop offset=".5928" stop-color="#a474f3" stop-opacity=".593"/><stop offset=".7227" stop-color="#845aef" stop-opacity=".723"/><stop offset=".8497" stop-color="#5d3ae9" stop-opacity=".85"/><stop offset=".9721" stop-color="#2f14e2" stop-opacity=".972"/><stop offset="1" stop-color="#230be0"/></linearGradient><linearGradient id="lg1"><stop offset="0" stop-color="#5471ff"/><stop offset=".1422" stop-color="#6075ff"/><stop offset=".3968" stop-color="#7f80fe"/><stop offset=".7318" stop-color="#b092fd"/><stop offset="1" stop-color="#dda2fc"/></linearGradient><linearGradient id="SVGID_4_" gradientUnits="userSpaceOnUse" x1="149.603" x2="312.951" xlink:href="#lg1" y1="362.397" y2="199.049"/><linearGradient id="SVGID_5_" gradientUnits="userSpaceOnUse" x1="173.486" x2="346.547" xlink:href="#lg1" y1="338.514" y2="165.453"/><linearGradient id="SVGID_6_" gradientUnits="userSpaceOnUse" x1="209.723" x2="364.938" y1="302.277" y2="147.063"><stop offset="0" stop-color="#230be0"/><stop offset=".0127" stop-color="#2b11e1" stop-opacity=".987"/><stop offset=".087" stop-color="#5433e7" stop-opacity=".913"/><stop offset=".1678" stop-color="#7951ed" stop-opacity=".832"/><stop offset=".2543" stop-color="#986af2" stop-opacity=".746"/><stop offset=".3482" stop-color="#b27ff5" stop-opacity=".652"/><stop offset=".4524" stop-color="#c58ef8" stop-opacity=".548"/><stop offset=".5728" stop-color="#d39afa" stop-opacity=".427"/><stop offset=".7234" stop-color="#dba0fc" stop-opacity=".277"/><stop offset="1" stop-color="#dda2fc" stop-opacity="0"/></linearGradient><linearGradient id="lg2"><stop offset="0" stop-color="#dda2fc"/><stop offset=".1867" stop-color="#e1adfc"/><stop offset=".511" stop-color="#ebc9fd"/><stop offset=".9317" stop-color="#fcf7ff"/><stop offset="1" stop-color="#fff"/></linearGradient><linearGradient id="SVGID_7_" gradientTransform="matrix(.707 .707 -.707 .707 256 -106.039)" gradientUnits="userSpaceOnUse" x1="256" x2="256" xlink:href="#lg2" y1="414.118" y2="203.756"/><linearGradient id="SVGID_8_" gradientTransform="matrix(.707 .707 -.707 .707 256 -106.039)" gradientUnits="userSpaceOnUse" x1="256.258" x2="256.258" xlink:href="#lg2" y1="485.39" y2="32.954"/><linearGradient id="SVGID_9_" gradientUnits="userSpaceOnUse" x1="5.102" x2="326.356" xlink:href="#lg2" y1="463.575" y2="142.321"/><linearGradient id="SVGID_10_" gradientTransform="matrix(.707 .707 -.707 .707 -173.243 -276.825)" gradientUnits="userSpaceOnUse" x1="711.422" x2="711.422" xlink:href="#lg2" y1="90.082" y2="-190.278"/><linearGradient id="SVGID_11_" gradientUnits="userSpaceOnUse" x1="182.357" x2="400.606" xlink:href="#lg2" y1="307.678" y2="89.429"/><g><circle cx="256" cy="256" fill="url(#SVGID_1_)" r="256"/><circle cx="256" cy="256" fill="url(#SVGID_2_)" r="256"/><path d="m375.452 190.685c-14.324-.172-27.849-5.855-38.064-16.074-10.218-10.213-15.902-23.738-16.073-38.063-.171-14.322 5.172-27.723 14.976-37.647 8.741-8.846 17.421-17.64 26.029-26.373 25.501 25.851 51.301 51.651 77.152 77.152-8.733 8.608-17.528 17.288-26.373 26.029-9.924 9.804-23.326 15.146-37.647 14.976z" fill="url(#SVGID_3_)"/><path d="m332.277 212.434c-10.915-10.886-21.825-21.796-32.711-32.711-17.93 17.98-35.993 36.073-54.097 54.19-1.809 12.683-3.622 25.368-5.434 38.051 12.684-1.812 25.368-3.625 38.051-5.434 18.118-18.104 36.212-36.166 54.191-54.096z" fill="url(#SVGID_4_)"/><path d="m278.087 266.53c-10.873-10.865-21.752-21.744-32.617-32.617-10.862 10.87-21.74 21.749-32.613 32.617 10.871 10.865 21.748 21.743 32.614 32.614 10.867-10.874 21.746-21.751 32.616-32.614z" fill="url(#SVGID_5_)"/><path d="m299.567 179.723c-28.688 28.767-57.715 57.826-86.71 86.807 10.871 10.865 21.748 21.743 32.614 32.614 28.98-28.994 58.04-58.021 86.807-86.709-10.916-10.887-21.826-21.797-32.711-32.712z" fill="url(#SVGID_6_)"/><path d="m256.341 288.27c-10.866-10.867-21.743-21.744-32.61-32.61-3.001-3-7.867-2.997-10.871.004-9.063 9.06-18.126 18.113-27.177 27.149 14.506 14.481 29.024 28.999 43.505 43.505 9.036-9.051 18.089-18.114 27.149-27.177 3.002-3.006 3.005-7.871.004-10.871z" fill="url(#SVGID_7_)"/><path d="m294.101 369.656c-50.15-50.358-101.398-101.607-151.757-151.756-11.915-11.879-31.32-11.663-43.42.312-7.298 7.225-14.592 14.429-21.878 21.606 10.846 3.507 21.699 7.041 32.558 10.597 36.125 35.773 72.633 72.18 108.797 108.495.402 14.122.811 28.244 1.226 42.367 5.925-5.981 15.585-5.965 21.531.039 5.948 6.004 5.927 15.738.004 21.743-9.33 9.455-18.613 18.887-27.837 28.282-5.858 5.962-5.765 15.688.139 21.733 5.906 6.045 15.382 6.09 21.236.093 19.457-19.923 39.194-39.993 59.089-60.089 11.974-12.102 12.19-31.507.312-43.422z" fill="url(#SVGID_8_)"/><path d="m229.21 348.059c-36.156-36.277-72.631-72.671-108.699-108.456-11.946-11.865-31.384-11.68-43.464.214-12.776 12.587-25.524 25.092-38.212 37.483-5.996 5.854-5.952 15.331.093 21.236 6.045 5.904 15.77 5.998 21.733.139 9.395-9.224 18.827-18.507 28.282-27.837 6.005-5.922 15.74-5.943 21.743.004 6.004 5.946 6.019 15.606.039 21.531-9.422 9.332-18.817 18.622-28.173 27.855-5.943 5.862-5.824 15.431.244 21.43 6.068 5.997 15.762 6.14 21.678.267 9.321-9.247 18.685-18.548 28.079-27.888 5.966-5.929 15.696-5.897 21.719.108 6.023 6.004 6.069 15.708.12 21.648-9.371 9.353-18.709 18.67-28 27.937-5.902 5.883-5.75 15.525.302 21.577s15.694 6.204 21.577.302c9.267-9.291 18.583-18.629 27.937-28 5.939-5.948 15.645-5.903 21.648.12 6.005 6.023 6.038 15.754.108 21.719-9.34 9.394-18.641 18.758-27.888 28.079-5.873 5.916-5.731 15.61.267 21.678s15.567 6.187 21.43.244c12.41-12.575 24.921-25.221 37.503-37.908 11.885-11.992 11.918-31.465-.066-43.482z" fill="url(#SVGID_9_)"/><path d="m438.819 128.422c-7.398-7.321-14.787-14.665-22.163-22.026.482 14.239.901 28.478 1.257 42.717-5.256 5.206-10.533 10.436-15.829 15.688-14.635 14.493-38.917 14.233-54.011-.873.118-.135-58.001 47.102-58.096 47.207 7.257 7.262 14.52 14.52 21.783 21.769 3.008 3.002 7.873 3.015 10.863.034 9.145-9.118 18.268-18.209 27.357-27.259 8.876.05 17.752.109 26.628.177 17.34-.075 34.554-6.518 47.509-19.271 5.319-5.239 10.62-10.455 15.901-15.646 11.683-11.467 11.069-30.376-1.199-42.517z" fill="url(#SVGID_10_)"/><path d="m300.827 211.173c15.845-15.845 31.614-31.614 47.245-47.245-15.107-15.094-15.367-39.376-.873-54.011 5.251-5.296 10.481-10.573 15.688-15.83 18.244 18.41 36.616 36.783 55.026 55.026 11.627-11.497 10.974-30.509-1.257-42.717-11.064-11.041-22.096-22.119-33.078-33.215-12.142-12.268-31.05-12.881-42.516-1.199-4.955 5.041-9.932 10.1-14.931 15.175-12.961 13.166-19.653 30.766-19.767 48.456-.005 8.802-.02 17.604-.042 26.407-9.05 9.089-18.14 18.212-27.259 27.357-2.981 2.99-2.969 7.855.034 10.863 3.625 3.632 7.251 7.263 10.88 10.894 3.005 3.009 7.865 3.023 10.85.039z" fill="url(#SVGID_11_)"/></g></svg>