<svg id="Capa_1" enable-background="new 0 0 512 512" height="512" viewBox="0 0 512 512" width="512" xmlns="http://www.w3.org/2000/svg" xmlns:xlink="http://www.w3.org/1999/xlink"><linearGradient id="SVGID_1_" gradientUnits="userSpaceOnUse" x1="74.98" x2="437.019" y1="437.019" y2="74.98"><stop offset="0" stop-color="#008547"/><stop offset="1" stop-color="#e6fe7f"/></linearGradient><radialGradient id="SVGID_2_" cx="256" cy="256" gradientUnits="userSpaceOnUse" r="256"><stop offset="0" stop-color="#00aa45"/><stop offset="1" stop-color="#d3ff33" stop-opacity="0"/></radialGradient><linearGradient id="lg1"><stop offset="0" stop-color="#95e12e"/><stop offset="1" stop-color="#ddff59"/></linearGradient><linearGradient id="SVGID_3_" gradientUnits="userSpaceOnUse" x1="141.622" x2="470.242" xlink:href="#lg1" y1="417.35" y2="88.73"/><linearGradient id="SVGID_4_" gradientUnits="userSpaceOnUse" x1="-.33" x2="505.791" xlink:href="#lg1" y1="655.256" y2="149.135"/><linearGradient id="SVGID_5_" gradientUnits="userSpaceOnUse" x1="256" x2="256" y1="420.565" y2="322.374"><stop offset="0" stop-color="#d3ff33" stop-opacity="0"/><stop offset=".1162" stop-color="#c2f834" stop-opacity=".116"/><stop offset=".3455" stop-color="#97e738" stop-opacity=".346"/><stop offset=".6662" stop-color="#50ca3e" stop-opacity=".666"/><stop offset="1" stop-color="#00aa45"/></linearGradient><linearGradient id="lg2"><stop offset="0" stop-color="#b8ef5c"/><stop offset=".3622" stop-color="#ddff59"/><stop offset="1" stop-color="#fff"/></linearGradient><linearGradient id="SVGID_6_" gradientUnits="userSpaceOnUse" x1="-426.35" x2="462.691" xlink:href="#lg2" y1="1034.345" y2="145.305"/><linearGradient id="SVGID_7_" gradientTransform="matrix(-1 0 0 1 2960 0)" gradientUnits="userSpaceOnUse" x1="3251.136" x2="2357.759" xlink:href="#lg2" y1="746.787" y2="-146.591"/><linearGradient id="SVGID_8_" gradientTransform="matrix(-1 0 0 1 2960 0)" gradientUnits="userSpaceOnUse" x1="3360.269" x2="2535.067" xlink:href="#lg1" y1="1018.39" y2="193.188"/><linearGradient id="SVGID_9_" gradientTransform="matrix(-1 0 0 1 2960 0)" gradientUnits="userSpaceOnUse" x1="3186.576" x2="2355.317" xlink:href="#lg1" y1="696.538" y2="-134.721"/><linearGradient id="lg3"><stop offset="0" stop-color="#008547"/><stop offset=".1212" stop-color="#128f45"/><stop offset=".3647" stop-color="#41aa41"/><stop offset=".7046" stop-color="#8cd63a"/><stop offset="1" stop-color="#d3ff33"/></linearGradient><linearGradient id="SVGID_10_" gradientUnits="userSpaceOnUse" x1="365.346" x2="-505.535" xlink:href="#lg3" y1="454.567" y2="-416.313"/><linearGradient id="SVGID_11_" gradientTransform="matrix(-1 0 0 1 2960 0)" gradientUnits="userSpaceOnUse" x1="2863.05" x2="2374.974" xlink:href="#lg3" y1="514.04" y2="25.964"/><linearGradient id="SVGID_12_" gradientTransform="matrix(-1 0 0 1 2960 0)" gradientUnits="userSpaceOnUse" x1="2870.183" x2="2378.255" xlink:href="#lg3" y1="411.703" y2="-80.226"/><linearGradient id="lg4"><stop offset="0" stop-color="#ddff59"/><stop offset="1" stop-color="#fff"/></linearGradient><linearGradient id="SVGID_13_" gradientUnits="userSpaceOnUse" x1="142.658" x2="387.433" xlink:href="#lg4" y1="468.882" y2="224.107"/><linearGradient id="SVGID_14_" gradientUnits="userSpaceOnUse" x1="30.722" x2="277.536" xlink:href="#lg4" y1="588.505" y2="341.692"/><linearGradient id="SVGID_15_" gradientUnits="userSpaceOnUse" x1="19.024" x2="300.482" xlink:href="#lg4" y1="650.154" y2="368.696"/><linearGradient id="SVGID_16_" gradientUnits="userSpaceOnUse" x1="90.988" x2="777.736" y1="441.854" y2="-244.894"><stop offset="0" stop-color="#5ccd38"/><stop offset=".5" stop-color="#95e12e"/><stop offset="1" stop-color="#ddff59"/></linearGradient><linearGradient id="SVGID_17_" gradientUnits="userSpaceOnUse" x1="191.045" x2="704.699" xlink:href="#lg1" y1="490.864" y2="-22.79"/><g><circle cx="256" cy="256" fill="url(#SVGID_1_)" r="256"/><circle cx="256" cy="256" fill="url(#SVGID_2_)" r="256"/><path d="m106.152 350.204c.515 17.635 1.179 35.271 1.991 52.906 49.286 1.652 98.572 2.477 147.857 2.477 0-17.938 0-35.875 0-53.813-49.949.001-99.899-.523-149.848-1.57z" fill="url(#SVGID_3_)"/><path d="m151.868 351.017c.358 17.792.819 35.583 1.384 53.375 83.535 1.945 167.07 1.518 250.605-1.281.812-17.635 1.476-35.271 1.991-52.906-84.66 1.774-169.32 2.045-253.98.812z" fill="url(#SVGID_4_)"/><path d="m106.152 350.204c.515 17.635 1.179 35.271 1.991 52.906 98.571 3.303 197.143 3.303 295.714 0 .812-17.635 1.476-35.271 1.991-52.906-99.899 2.095-199.797 2.095-299.696 0z" fill="url(#SVGID_5_)"/><path d="m403.5 106.332c-25-.884-50-1.543-75-1.977 2.057 87.451 2.363 174.902.919 262.353 25.317-.305 50.634-.767 75.951-1.388 16.754-.435 30.936-14.279 31.443-30.82 1.943-65.667 1.367-131.333-1.725-197-.806-16.54-15.054-30.56-31.588-31.168z" fill="url(#SVGID_6_)"/><path d="m360.413 335.767c1.122-66.761.79-133.522-.996-200.283-.478-16.827-14.382-30.831-30.917-31.129-73.333-1.274-146.667-.615-220 1.977-16.535.609-30.782 14.628-31.588 31.168-3.093 65.667-3.668 131.333-1.725 197 .507 16.541 14.69 30.385 31.443 30.82 74.263 1.82 148.526 2.282 222.79 1.388 16.755-.215 30.692-14.114 30.993-30.941z" fill="url(#SVGID_7_)"/><path d="m359.417 135.484c-14.241 33.085-29.238 66.475-44.512 100.013 15.46 33.599 30.789 67.075 45.508 100.27 15.28-.185 30.56-.412 45.84-.679 1.614-66.175 1.136-132.349-1.434-198.524-15.134-.425-30.268-.785-45.402-1.08z" fill="url(#SVGID_8_)"/><path d="m107.18 136.564c-2.57 66.175-3.048 132.349-1.434 198.524 84.889 1.482 169.778 1.709 254.667.679 1.122-66.761.79-133.522-.996-200.283-84.079-1.64-168.158-1.28-252.237 1.08z" fill="url(#SVGID_9_)"/><path d="m171.441 150.437c-16.54.229-33.081.526-49.621.89-1.714 56.283-2.078 112.566-1.092 168.849 73.506.924 147.013 1.094 220.519.512-56.209-56.301-114.514-114.283-169.806-170.251z" fill="url(#SVGID_10_)"/><path d="m390.18 151.327c-10.127-.223-20.254-.42-30.38-.593-14.527 28.038-29.606 56.337-44.894 84.763 15.446 28.487 30.807 56.872 45.739 85.02 10.209-.099 20.418-.213 30.628-.341.986-56.283.622-112.566-1.093-168.849z" fill="url(#SVGID_11_)"/><path d="m171.441 150.437c-1.834 93.579 76.133 170.916 169.806 170.251 6.466-.051 12.932-.108 19.397-.171.763-56.594.482-113.189-.844-169.783-62.786-1.069-125.573-1.168-188.359-.297z" fill="url(#SVGID_12_)"/><path d="m205.553 382.285c-8.364-.077-15.026 6.698-14.859 15.159.049 2.554.098 5.108.149 7.662 15.036.222 30.073.367 45.109.436-.047-7.685-.091-15.37-.13-23.055-10.09-.038-20.18-.106-30.269-.202z" fill="url(#SVGID_13_)"/><path d="m220.835 397.768c.026 2.56.053 5.12.08 7.68 4.93-7.641 9.901-15.296 14.906-22.962-8.364-.029-15.079 6.8-14.986 15.282z" fill="url(#SVGID_14_)"/><path d="m306.447 382.285c-23.542.224-47.084.291-70.626.202-8.364-.03-15.079 6.799-14.986 15.281.026 2.56.053 5.12.08 7.68 33.414.266 66.828.152 100.242-.342.051-2.554.101-5.108.149-7.662.168-8.461-6.495-15.236-14.859-15.159z" fill="url(#SVGID_15_)"/><path d="m107.804 395.552c-4.163-.131-7.383 3.134-7.179 7.3.204 4.165 3.735 7.669 7.875 7.816 15 .53 30 .979 45 1.348-.17-5.083-.331-10.167-.484-15.25-15.071-.331-30.141-.736-45.212-1.214z" fill="url(#SVGID_16_)"/><path d="m404.196 395.552c-83.727 2.653-167.453 3.058-251.18 1.214-4.163-.09-7.428 3.239-7.283 7.443.146 4.206 3.626 7.703 7.766 7.807 83.333 2.047 166.667 1.598 250-1.348 4.139-.147 7.672-3.652 7.875-7.816.205-4.165-3.015-7.429-7.178-7.3z" fill="url(#SVGID_17_)"/></g></svg>