<svg id="Capa_1" enable-background="new 0 0 512 512" height="512" viewBox="0 0 512 512" width="512" xmlns="http://www.w3.org/2000/svg" xmlns:xlink="http://www.w3.org/1999/xlink"><linearGradient id="SVGID_1_" gradientUnits="userSpaceOnUse" x1="14.896" x2="448.08" y1="497.104" y2="63.92"><stop offset="0" stop-color="#ff4c5e"/><stop offset="1" stop-color="#fff200"/></linearGradient><radialGradient id="SVGID_2_" cx="256" cy="256" gradientUnits="userSpaceOnUse" r="256"><stop offset="0" stop-color="#ff4c5e" stop-opacity=".6"/><stop offset="1" stop-color="#fff200" stop-opacity="0"/></radialGradient><linearGradient id="lg1"><stop offset="0" stop-color="#fff200"/><stop offset=".2096" stop-color="#fff52f"/><stop offset=".7578" stop-color="#fefca6"/><stop offset="1" stop-color="#feffd6"/></linearGradient><linearGradient id="SVGID_3_" gradientUnits="userSpaceOnUse" x1="-23.495" x2="327.236" xlink:href="#lg1" y1="435.676" y2="84.945"/><linearGradient id="SVGID_4_" gradientUnits="userSpaceOnUse" x1="73.661" x2="762.268" xlink:href="#lg1" y1="241.4" y2="-447.207"/><linearGradient id="SVGID_5_" gradientUnits="userSpaceOnUse" x1="-5.749" x2="404.6" xlink:href="#lg1" y1="358.217" y2="-52.132"/><linearGradient id="lg2"><stop offset="0" stop-color="#ff3838"/><stop offset="1" stop-color="#fff200"/></linearGradient><linearGradient id="SVGID_6_" gradientUnits="userSpaceOnUse" x1="106.927" x2="751.046" xlink:href="#lg2" y1="419.648" y2="-224.471"/><linearGradient id="SVGID_7_" gradientUnits="userSpaceOnUse" x1="71.512" x2="790.497" xlink:href="#lg2" y1="566.959" y2="-152.026"/><linearGradient id="SVGID_8_" gradientUnits="userSpaceOnUse" x1="256" x2="256" y1="372.705" y2="303.335"><stop offset="0" stop-color="#ff4c5e" stop-opacity="0"/><stop offset=".316" stop-color="#ff4957" stop-opacity=".19"/><stop offset=".7718" stop-color="#ff3f44" stop-opacity=".463"/><stop offset="1" stop-color="#ff3838" stop-opacity=".6"/></linearGradient><linearGradient id="SVGID_9_" gradientUnits="userSpaceOnUse" x1="10.042" x2="603.934" xlink:href="#lg2" y1="439.13" y2="-154.763"/><linearGradient id="SVGID_10_" gradientUnits="userSpaceOnUse" x1="10.253" x2="598.608" xlink:href="#lg2" y1="523.393" y2="-64.962"/><linearGradient id="SVGID_11_" gradientUnits="userSpaceOnUse" x1="66.749" x2="499.091" xlink:href="#lg2" y1="506.443" y2="74.101"/><linearGradient id="SVGID_12_" gradientUnits="userSpaceOnUse" x1="109.511" x2="406.227" xlink:href="#lg1" y1="581.303" y2="284.587"/><linearGradient id="SVGID_13_" gradientUnits="userSpaceOnUse" x1="188.714" x2="516.85" xlink:href="#lg1" y1="458.17" y2="130.034"/><linearGradient id="SVGID_14_" gradientUnits="userSpaceOnUse" x1="116.51" x2="480.525" xlink:href="#lg2" y1="571.861" y2="207.846"/><linearGradient id="lg3"><stop offset="0" stop-color="#ff4c5e" stop-opacity="0"/><stop offset=".5455" stop-color="#ff4c5c" stop-opacity=".327"/><stop offset=".742" stop-color="#ff4856" stop-opacity=".445"/><stop offset=".8815" stop-color="#ff424a" stop-opacity=".529"/><stop offset=".9941" stop-color="#ff3939" stop-opacity=".597"/><stop offset="1" stop-color="#ff3838" stop-opacity=".6"/></linearGradient><linearGradient id="SVGID_15_" gradientUnits="userSpaceOnUse" x1="355.302" x2="355.302" xlink:href="#lg3" y1="410.878" y2="286.064"/><linearGradient id="SVGID_16_" gradientUnits="userSpaceOnUse" x1="318.286" x2="405.725" xlink:href="#lg2" y1="361.987" y2="274.548"/><linearGradient id="lg4"><stop offset=".0056" stop-color="#ff3838" stop-opacity="0"/><stop offset="1" stop-color="#ff3838" stop-opacity=".6"/></linearGradient><radialGradient id="SVGID_17_" cx="355.328" cy="324.958" gradientUnits="userSpaceOnUse" r="15.095" xlink:href="#lg4"/><linearGradient id="SVGID_18_" gradientUnits="userSpaceOnUse" x1="317.542" x2="404.389" xlink:href="#lg2" y1="302.24" y2="215.393"/><radialGradient id="SVGID_19_" cx="355.892" cy="263.898" gradientUnits="userSpaceOnUse" r="15.137" xlink:href="#lg4"/><linearGradient id="SVGID_20_" gradientUnits="userSpaceOnUse" x1="313.278" x2="399.722" xlink:href="#lg2" y1="276.016" y2="189.573"/><radialGradient id="SVGID_21_" cx="355.933" cy="233.368" gradientUnits="userSpaceOnUse" r="15.14" xlink:href="#lg4"/><linearGradient id="SVGID_22_" gradientUnits="userSpaceOnUse" x1="-80.647" x2="355.014" xlink:href="#lg2" y1="455.832" y2="20.171"/><linearGradient id="SVGID_23_" gradientUnits="userSpaceOnUse" x1="13.778" x2="196.336" xlink:href="#lg1" y1="478.801" y2="296.243"/><linearGradient id="SVGID_24_" gradientUnits="userSpaceOnUse" x1=".227" x2="309.586" xlink:href="#lg1" y1="447.309" y2="137.95"/><linearGradient id="SVGID_25_" gradientUnits="userSpaceOnUse" x1="-51.241" x2="301.792" xlink:href="#lg2" y1="541.64" y2="188.607"/><linearGradient id="SVGID_26_" gradientUnits="userSpaceOnUse" x1="156.698" x2="156.698" xlink:href="#lg3" y1="410.878" y2="286.064"/><linearGradient id="SVGID_27_" gradientUnits="userSpaceOnUse" x1="129.958" x2="215.092" xlink:href="#lg2" y1="351.673" y2="266.538"/><radialGradient id="SVGID_28_" cx="156.672" cy="324.958" gradientUnits="userSpaceOnUse" r="15.095" xlink:href="#lg4"/><linearGradient id="SVGID_29_" gradientUnits="userSpaceOnUse" x1="126.989" x2="213.209" xlink:href="#lg2" y1="293.021" y2="206.802"/><radialGradient id="SVGID_30_" cx="156.108" cy="263.898" gradientUnits="userSpaceOnUse" r="15.137" xlink:href="#lg4"/><linearGradient id="SVGID_31_" gradientUnits="userSpaceOnUse" x1="123.692" x2="210.346" xlink:href="#lg2" y1="265.751" y2="179.097"/><radialGradient id="SVGID_32_" cx="156.068" cy="233.368" gradientUnits="userSpaceOnUse" r="15.14" xlink:href="#lg4"/><g><circle cx="256" cy="256" fill="url(#SVGID_1_)" r="256"/><circle cx="256" cy="256" fill="url(#SVGID_2_)" r="256"/><path d="m301 72.133c-10-.115-20-.191-30-.229 10.046 10.286 20.178 20.604 30.372 30.932.167 15.352.307 30.703.418 46.055 10.176.062 20.351.146 30.527.25-.186-15.31-.418-30.62-.697-45.93-.334-16.898-14.083-30.881-30.62-31.078z" fill="url(#SVGID_3_)"/><path d="m241 71.904c-10 .038-20 .115-30 .229-16.539.197-30.287 14.18-30.62 31.078-.279 15.31-.511 30.62-.697 45.93 10.176-.104 20.351-.188 30.527-.25.112-15.352.251-30.703.418-46.055.211-16.948 13.833-30.865 30.372-30.932z" fill="url(#SVGID_4_)"/><path d="m271 71.904c-10-.038-20-.038-30 0-16.539.066-30.161 13.985-30.372 30.932 30.248-.281 60.496-.281 90.744 0-.211-16.948-13.833-30.865-30.372-30.932z" fill="url(#SVGID_5_)"/><path d="m87.011 210.88c-.5 55.22.375 110.439 2.625 165.659.702 16.608 14.826 30.676 31.364 31.266 15 .516 30 .945 45 1.289 84.318-23.521 170.723-50.687 257.898-77.734 1.091-40.16 1.454-80.319 1.091-120.479-112.659-.841-225.319-.841-337.978-.001z" fill="url(#SVGID_6_)"/><path d="m391 407.805c-75 2.578-150 3.008-225 1.289-16.539-.394-30.474-14.44-30.992-31.219-.446-15.208-.818-30.417-1.116-45.625 96.668 1.583 193.337 1.286 290.005-.891-.409 15.06-.921 30.12-1.534 45.18-.702 16.609-14.825 30.676-31.363 31.266z" fill="url(#SVGID_7_)"/><path d="m391 407.805c-90 3.094-180 3.094-270 0-16.538-.59-30.662-14.657-31.364-31.266-2.25-55.22-3.125-110.439-2.625-165.659 112.659-.84 225.318-.84 337.977 0 .5 55.22-.375 110.439-2.625 165.659-.702 16.609-14.825 30.676-31.363 31.266z" fill="url(#SVGID_8_)"/><path d="m210.331 133.539c-10.149.073-20.297.17-30.446.292-7.684 5.194-15.384 10.39-23.097 15.58-7.551-4.987-15.077-9.945-22.573-14.869-15.223.292-30.446.638-45.669 1.039-8.402.227-15.456 7.141-15.707 15.419-1.19 40-1.587 80-1.19 120 .171 16.542 14.181 30.204 31.097 30.458 91.953 1.25 183.905 1.375 275.857.375-55.466-55.152-112.932-112.406-168.272-168.294z" fill="url(#SVGID_9_)"/><path d="m423.455 135.581c-15.223-.401-30.446-.747-45.669-1.039-7.496 4.924-15.022 9.882-22.573 14.869-7.712-5.19-15.413-10.385-23.097-15.58-40.595-.486-81.19-.583-121.785-.292-.811 93.081 75.469 169.396 168.273 168.294 10.217-.111 20.434-.236 30.651-.375 16.915-.254 30.926-13.916 31.097-30.458.397-40 0-80-1.19-120-.25-8.277-7.306-15.192-15.707-15.419z" fill="url(#SVGID_10_)"/><path d="m378.603 301.834c-15.325.167-30.651.302-45.976.406.455-56.136.284-112.273-.511-168.409 15.223.182 30.446.419 45.669.711 1.273 55.764 1.546 111.528.818 167.292z" fill="url(#SVGID_11_)"/><path d="m378.777 286.625c-5.116.042-10.231.081-15.347.117-.173 20.33-.463 40.66-.868 60.99 5.074-.085 10.149-.176 15.223-.273 8.403-.165 15.396-7.105 15.586-15.474.223-10.109.409-20.219.558-30.328.126-8.371-6.675-15.096-15.152-15.032z" fill="url(#SVGID_12_)"/><path d="m363.43 286.742c-10.232.073-20.463.135-30.694.188-8.478.041-15.38 6.933-15.434 15.404-.066 10.222-.149 20.445-.248 30.667-.078 8.47 6.658 15.272 15.062 15.169 15.44-15.492 30.964-30.961 46.488-46.336.11-8.396-6.697-15.147-15.174-15.092z" fill="url(#SVGID_13_)"/><path d="m354.306 378.385c-12.517.26-22.482-9.873-22.302-22.561.271-17.861.479-35.723.624-53.585 15.325-.104 30.651-.24 45.976-.406-.231 17.743-.564 35.486-.998 53.229-.32 12.589-10.786 23.063-23.3 23.323z" fill="url(#SVGID_14_)"/><path d="m354.306 378.385c-12.517.26-22.482-9.873-22.302-22.561.271-17.861.479-35.723.624-53.585 15.325-.104 30.651-.24 45.976-.406-.231 17.743-.564 35.486-.998 53.229-.32 12.589-10.786 23.063-23.3 23.323z" fill="url(#SVGID_15_)"/><path d="m362.969 324.861c-.067 4.209-3.543 7.672-7.756 7.729-4.214.057-7.58-3.322-7.525-7.543.056-4.221 3.522-7.676 7.746-7.722s7.602 3.327 7.535 7.536z" fill="url(#SVGID_16_)"/><path d="m362.969 324.861c-.067 4.209-3.543 7.672-7.756 7.729-4.214.057-7.58-3.322-7.525-7.543.056-4.221 3.522-7.676 7.746-7.722s7.602 3.327 7.535 7.536z" fill="url(#SVGID_17_)"/><path d="m363.576 263.871c-.018 4.21-3.477 7.639-7.719 7.659s-7.664-3.387-7.649-7.608c.015-4.22 3.464-7.649 7.709-7.657s7.677 3.397 7.659 7.606z" fill="url(#SVGID_18_)"/><path d="m363.576 263.871c-.018 4.21-3.477 7.639-7.719 7.659s-7.664-3.387-7.649-7.608c.015-4.22 3.464-7.649 7.709-7.657s7.677 3.397 7.659 7.606z" fill="url(#SVGID_19_)"/><path d="m363.62 233.376c.006 4.21-3.436 7.623-7.682 7.624-4.246 0-7.687-3.42-7.692-7.641s3.427-7.634 7.672-7.624c4.244.011 7.696 3.432 7.702 7.641z" fill="url(#SVGID_20_)"/><path d="m363.62 233.376c.006 4.21-3.436 7.623-7.682 7.624-4.246 0-7.687-3.42-7.692-7.641s3.427-7.634 7.672-7.624c4.244.011 7.696 3.432 7.702 7.641z" fill="url(#SVGID_21_)"/><path d="m179.373 302.24c-15.325-.104-30.651-.24-45.976-.406-.727-55.764-.455-111.528.818-167.292 15.223-.292 30.446-.529 45.669-.711-.795 56.136-.966 112.273-.511 168.409z" fill="url(#SVGID_22_)"/><path d="m179.264 286.93c-5.116-.026-10.231-.055-15.347-.086.149 20.375.397 40.75.744 61.125 5.074.073 10.149.14 15.223.201 8.404.103 15.14-6.699 15.062-15.169-.099-10.222-.182-20.444-.248-30.667-.052-8.471-6.955-15.364-15.434-15.404z" fill="url(#SVGID_23_)"/><path d="m163.917 286.844c-10.231-.063-20.463-.135-30.694-.219-8.478-.064-15.279 6.661-15.152 15.031.149 10.109.335 20.219.558 30.328.189 8.37 7.182 15.309 15.586 15.474 14.876-14.917 29.957-30.013 45.158-45.219-.066-8.458-6.978-15.346-15.456-15.395z" fill="url(#SVGID_24_)"/><path d="m157.694 378.385c-12.514-.26-22.98-10.734-23.3-23.322-.434-17.743-.766-35.486-.998-53.229 15.325.167 30.651.302 45.976.406.145 17.862.353 35.723.624 53.585.18 12.688-9.785 22.82-22.302 22.56z" fill="url(#SVGID_25_)"/><path d="m157.694 378.385c-12.514-.26-22.98-10.734-23.3-23.322-.434-17.743-.766-35.486-.998-53.229 15.325.167 30.651.302 45.976.406.145 17.862.353 35.723.624 53.585.18 12.688-9.785 22.82-22.302 22.56z" fill="url(#SVGID_26_)"/><path d="m164.313 325.047c.055 4.22-3.311 7.6-7.525 7.543s-7.69-3.52-7.756-7.729 3.31-7.582 7.535-7.536 7.69 3.501 7.746 7.722z" fill="url(#SVGID_27_)"/><path d="m164.313 325.047c.055 4.22-3.311 7.6-7.525 7.543s-7.69-3.52-7.756-7.729 3.31-7.582 7.535-7.536 7.69 3.501 7.746 7.722z" fill="url(#SVGID_28_)"/><path d="m163.792 263.922c.014 4.221-3.407 7.628-7.649 7.608-4.242-.019-7.702-3.45-7.719-7.659-.018-4.209 3.414-7.615 7.659-7.606 4.245.008 7.693 3.436 7.709 7.657z" fill="url(#SVGID_29_)"/><path d="m163.792 263.922c.014 4.221-3.407 7.628-7.649 7.608-4.242-.019-7.702-3.45-7.719-7.659-.018-4.209 3.414-7.615 7.659-7.606 4.245.008 7.693 3.436 7.709 7.657z" fill="url(#SVGID_30_)"/><path d="m163.755 233.36c-.005 4.221-3.446 7.642-7.692 7.641s-7.688-3.415-7.682-7.624 3.458-7.631 7.702-7.641c4.244-.011 7.676 3.403 7.672 7.624z" fill="url(#SVGID_31_)"/><path d="m163.755 233.36c-.005 4.221-3.446 7.642-7.692 7.641s-7.688-3.415-7.682-7.624 3.458-7.631 7.702-7.641c4.244-.011 7.676 3.403 7.672 7.624z" fill="url(#SVGID_32_)"/></g></svg>