<svg 
    height="30" 
    width="30"
    viewBox="0 0 64 64" 
    xmlns="http://www.w3.org/2000/svg" 
>
    <circle 
        cx="24.39" 
        cy="24.39" 
        fill="#8ccfb5" 
        r="13.36" 
        transform="matrix(.383 -.924 .924 .383 -7.48 37.59)"
    />
    <path 
        d="m39.11 37.58-3.11-3.13c-.25-.25-.78.3-1 .55s-.73.65-.48.9l3.06 3.1c.12.13.56 0 .73 0s.21-.21.34-.33.71-.84.46-1.09z" 
        fill="#2f3a5a"
    />
    <path 
        d="m35.87 12.91a16.24 16.24 0 1 0 0 23 16.25 16.25 0 0 0 0-23zm-2.87 20.09a12.2 12.2 0 1 1 0-17.26 12.22 12.22 0 0 1 0 17.26z" 
        fill="#3d4c70"
    />
    <path 
        d="m55.05 49.71-10.68-10.71-.91-.91-2.36-2.34a.8.8 0 0 0 -1.13 0l-4.22 4.25a.8.8 0 0 0 0 1.13l13.88 13.87a3.87 3.87 0 0 0 4.81.58 3.78 3.78 0 0 0 .61-5.87z" 
        fill="#3d4c70"
    />
    <g fill="#2f3a5a">
        <path 
            d="m56 51.46a3.48 3.48 0 0 1 -.72 1 3.78 3.78 0 0 1 -5.35 0l-13.31-13.35-.87.86a.8.8 0 0 0 0 1.13l13.83 13.83a3.9 3.9 0 0 0 5.32.27 3.75 3.75 0 0 0 1.1-3.74z"
        />
        <path 
            d="m37.46 40.6h7.56v1.29h-7.56z" 
            transform="matrix(.707 -.707 .707 .707 -17.08 41.24)"
        />
    </g>
</svg>